<svg width="199" height="70" viewBox="0 0 199 42" fill="none" xmlns="http://www.w3.org/2000/svg">
<path d="M3.31 32.405C2.47 32.405 1.855 32.285 1.465 32.045C1.075 31.805 0.835 31.475 0.745 31.055C0.655 30.605 0.61 30.14 0.61 29.66V3.695C0.61 3.215 0.655 2.78 0.745 2.39C0.865 1.97 1.12 1.64 1.51 1.4C1.9 1.13 2.515 0.995 3.355 0.995H12.895C14.215 0.995 15.505 1.22 16.765 1.67C18.025 2.12 19.15 2.795 20.14 3.695C21.16 4.595 21.955 5.705 22.525 7.025C23.125 8.345 23.425 9.89 23.425 11.66C23.425 13.4 23.125 14.93 22.525 16.25C21.955 17.54 21.16 18.635 20.14 19.535C19.12 20.435 17.98 21.11 16.72 21.56C15.49 22.01 14.2 22.235 12.85 22.235H6.055V29.705C6.055 30.185 5.995 30.635 5.875 31.055C5.785 31.475 5.545 31.805 5.155 32.045C4.795 32.285 4.18 32.405 3.31 32.405ZM6.055 16.745H12.895C13.825 16.745 14.665 16.565 15.415 16.205C16.195 15.815 16.825 15.245 17.305 14.495C17.785 13.715 18.025 12.74 18.025 11.57C18.025 10.52 17.8 9.62 17.35 8.87C16.93 8.09 16.33 7.49 15.55 7.07C14.8 6.65 13.9 6.44 12.85 6.44H6.055V16.745ZM35.0185 32.45C33.9085 32.45 32.9185 32.375 32.0485 32.225C31.2085 32.075 30.4735 31.82 29.8435 31.46C29.2435 31.1 28.7485 30.62 28.3585 30.02C27.9685 29.39 27.6685 28.625 27.4585 27.725C27.2785 26.825 27.1885 25.745 27.1885 24.485V2.795C27.1885 2.285 27.2335 1.835 27.3235 1.445C27.4435 1.025 27.6835 0.694999 28.0435 0.454998C28.4335 0.184998 29.0485 0.0499983 29.8885 0.0499983C30.7285 0.0499983 31.3285 0.169999 31.6885 0.409999C32.0785 0.649999 32.3185 0.98 32.4085 1.4C32.5285 1.79 32.5885 2.24 32.5885 2.75V24.26C32.5885 24.83 32.6185 25.31 32.6785 25.7C32.7685 26.06 32.9035 26.36 33.0835 26.6C33.2935 26.81 33.5485 26.96 33.8485 27.05C34.1785 27.14 34.5685 27.185 35.0185 27.185C35.4085 27.185 35.7535 27.23 36.0535 27.32C36.3835 27.41 36.6385 27.635 36.8185 27.995C37.0285 28.355 37.1335 28.94 37.1335 29.75C37.1335 30.59 37.0285 31.205 36.8185 31.595C36.6385 31.985 36.3835 32.225 36.0535 32.315C35.7235 32.405 35.3785 32.45 35.0185 32.45ZM58.8242 32.36C57.9542 32.36 57.3092 32.195 56.8892 31.865C56.4692 31.535 56.2592 31.085 56.2592 30.515L56.5742 29.03C56.3342 29.42 55.9292 29.885 55.3592 30.425C54.7892 30.935 54.0392 31.4 53.1092 31.82C52.1792 32.21 51.0542 32.405 49.7342 32.405C48.3242 32.405 46.9892 32.12 45.7292 31.55C44.4992 30.95 43.4042 30.14 42.4442 29.12C41.5142 28.07 40.7642 26.885 40.1942 25.565C39.6542 24.215 39.3842 22.775 39.3842 21.245C39.3842 19.775 39.6542 18.395 40.1942 17.105C40.7642 15.785 41.5292 14.615 42.4892 13.595C43.4492 12.575 44.5442 11.78 45.7742 11.21C47.0342 10.61 48.3542 10.31 49.7342 10.31C50.9642 10.31 51.9992 10.475 52.8392 10.805C53.7092 11.135 54.4442 11.555 55.0442 12.065C55.6442 12.545 56.1392 13.055 56.5292 13.595L56.2592 12.29C56.2592 11.63 56.4692 11.135 56.8892 10.805C57.3092 10.445 57.9692 10.265 58.8692 10.265C59.7092 10.265 60.3092 10.4 60.6692 10.67C61.0292 10.91 61.2542 11.255 61.3442 11.705C61.4342 12.125 61.4792 12.605 61.4792 13.145V29.615C61.4792 30.125 61.4342 30.59 61.3442 31.01C61.2542 31.43 61.0142 31.76 60.6242 32C60.2642 32.24 59.6642 32.36 58.8242 32.36ZM50.5442 27.14C51.5642 27.14 52.4792 26.885 53.2892 26.375C54.0992 25.865 54.7442 25.175 55.2242 24.305C55.7342 23.405 55.9892 22.415 55.9892 21.335C55.9892 20.165 55.7342 19.145 55.2242 18.275C54.7142 17.405 54.0392 16.73 53.1992 16.25C52.3892 15.74 51.4742 15.485 50.4542 15.485C49.3442 15.485 48.3542 15.755 47.4842 16.295C46.6142 16.805 45.9242 17.51 45.4142 18.41C44.9342 19.28 44.6942 20.27 44.6942 21.38C44.6942 22.46 44.9492 23.435 45.4592 24.305C45.9692 25.175 46.6592 25.865 47.5292 26.375C48.4292 26.885 49.4342 27.14 50.5442 27.14ZM70.6954 41.315C69.7354 40.895 69.1804 40.415 69.0304 39.875C68.8804 39.365 69.0154 38.675 69.4354 37.805L81.0454 11.795C81.4654 10.835 81.9154 10.265 82.3954 10.085C82.8754 9.875 83.6104 9.98 84.6004 10.4C85.5304 10.82 86.0704 11.285 86.2204 11.795C86.4004 12.305 86.2954 12.995 85.9054 13.865L74.2054 40.01C73.8154 40.97 73.3804 41.525 72.9004 41.675C72.4204 41.855 71.6854 41.735 70.6954 41.315ZM74.8804 30.29L64.4854 14.315C63.9454 13.505 63.7204 12.83 63.8104 12.29C63.9304 11.75 64.4104 11.225 65.2504 10.715C66.1804 10.145 66.9004 9.92 67.4104 10.04C67.9504 10.16 68.4904 10.64 69.0304 11.48L77.2654 24.305L74.8804 30.29ZM97.289 32.45C96.179 32.45 95.189 32.375 94.319 32.225C93.479 32.075 92.744 31.82 92.114 31.46C91.514 31.1 91.019 30.62 90.629 30.02C90.239 29.39 89.939 28.625 89.729 27.725C89.549 26.825 89.459 25.745 89.459 24.485V2.795C89.459 2.285 89.504 1.835 89.594 1.445C89.714 1.025 89.954 0.694999 90.314 0.454998C90.704 0.184998 91.319 0.0499983 92.159 0.0499983C92.999 0.0499983 93.599 0.169999 93.959 0.409999C94.349 0.649999 94.589 0.98 94.679 1.4C94.799 1.79 94.859 2.24 94.859 2.75V24.26C94.859 24.83 94.889 25.31 94.949 25.7C95.039 26.06 95.174 26.36 95.354 26.6C95.564 26.81 95.819 26.96 96.119 27.05C96.449 27.14 96.839 27.185 97.289 27.185C97.679 27.185 98.024 27.23 98.324 27.32C98.654 27.41 98.909 27.635 99.089 27.995C99.299 28.355 99.404 28.94 99.404 29.75C99.404 30.59 99.299 31.205 99.089 31.595C98.909 31.985 98.654 32.225 98.324 32.315C97.994 32.405 97.649 32.45 97.289 32.45ZM105.525 32.45C104.715 32.45 104.115 32.315 103.725 32.045C103.335 31.805 103.095 31.49 103.005 31.1C102.915 30.68 102.87 30.215 102.87 29.705V12.965C102.87 12.485 102.915 12.05 103.005 11.66C103.125 11.24 103.365 10.91 103.725 10.67C104.115 10.43 104.73 10.31 105.57 10.31C106.41 10.31 107.01 10.43 107.37 10.67C107.76 10.91 108 11.24 108.09 11.66C108.18 12.08 108.225 12.545 108.225 13.055V29.75C108.225 30.26 108.18 30.725 108.09 31.145C108 31.535 107.76 31.85 107.37 32.09C107.01 32.33 106.395 32.45 105.525 32.45ZM105.525 5.945C104.655 5.945 104.01 5.825 103.59 5.585C103.2 5.315 102.945 4.955 102.825 4.505C102.735 4.055 102.69 3.56 102.69 3.02C102.69 2.45 102.735 1.955 102.825 1.535C102.945 1.115 103.215 0.784998 103.635 0.544997C104.055 0.274999 104.7 0.14 105.57 0.14C106.47 0.14 107.115 0.274999 107.505 0.544997C107.895 0.814997 108.15 1.175 108.27 1.625C108.39 2.045 108.45 2.54 108.45 3.11C108.45 3.62 108.39 4.1 108.27 4.55C108.15 5 107.895 5.345 107.505 5.585C107.115 5.825 106.455 5.945 105.525 5.945ZM120.843 32.72C120.063 32.72 119.238 32.63 118.368 32.45C117.498 32.3 116.658 32.075 115.848 31.775C115.038 31.445 114.333 31.07 113.733 30.65C113.163 30.2 112.803 29.705 112.653 29.165C112.533 28.865 112.488 28.58 112.518 28.31C112.548 28.01 112.638 27.71 112.788 27.41C112.938 27.08 113.163 26.75 113.463 26.42C113.733 26.09 114.003 25.91 114.273 25.88C114.573 25.82 114.948 25.91 115.398 26.15C115.788 26.3 116.208 26.495 116.658 26.735C117.138 26.975 117.618 27.215 118.098 27.455C118.608 27.695 119.118 27.89 119.628 28.04C120.168 28.19 120.693 28.265 121.203 28.265C122.313 28.265 123.198 28.085 123.858 27.725C124.518 27.335 124.848 26.795 124.848 26.105C124.848 25.715 124.743 25.37 124.533 25.07C124.323 24.77 124.038 24.53 123.678 24.35C123.348 24.14 122.943 23.96 122.463 23.81C122.013 23.63 121.518 23.48 120.978 23.36C120.468 23.21 119.928 23.045 119.358 22.865C118.608 22.655 117.858 22.4 117.108 22.1C116.358 21.8 115.683 21.41 115.083 20.93C114.513 20.45 114.048 19.85 113.688 19.13C113.328 18.41 113.148 17.51 113.148 16.43C113.148 15.08 113.463 13.94 114.093 13.01C114.753 12.05 115.698 11.315 116.928 10.805C118.158 10.295 119.643 10.04 121.383 10.04C121.983 10.04 122.553 10.085 123.093 10.175C123.663 10.265 124.203 10.4 124.713 10.58C125.253 10.73 125.763 10.925 126.243 11.165C126.753 11.405 127.233 11.675 127.683 11.975C128.433 12.395 128.823 12.89 128.853 13.46C128.883 14 128.673 14.585 128.223 15.215C127.893 15.635 127.563 15.935 127.233 16.115C126.903 16.265 126.558 16.265 126.198 16.115C125.718 15.875 125.193 15.62 124.623 15.35C124.083 15.05 123.513 14.795 122.913 14.585C122.343 14.375 121.743 14.27 121.113 14.27C120.513 14.27 119.973 14.36 119.493 14.54C119.013 14.72 118.653 14.975 118.413 15.305C118.173 15.635 118.053 16.025 118.053 16.475C118.053 16.895 118.173 17.24 118.413 17.51C118.653 17.78 118.968 18.005 119.358 18.185C119.748 18.365 120.213 18.53 120.753 18.68C121.293 18.8 121.863 18.92 122.463 19.04C123.303 19.22 124.158 19.445 125.028 19.715C125.898 19.985 126.693 20.36 127.413 20.84C128.163 21.32 128.763 21.965 129.213 22.775C129.663 23.555 129.888 24.575 129.888 25.835C129.888 28.025 129.078 29.72 127.458 30.92C125.868 32.12 123.663 32.72 120.843 32.72ZM144.034 32.45C142.564 32.45 141.304 32.3 140.254 32C139.204 31.7 138.349 31.235 137.689 30.605C137.029 29.975 136.534 29.165 136.204 28.175C135.904 27.155 135.754 25.955 135.754 24.575V5.495C135.754 4.955 135.799 4.49 135.889 4.1C136.009 3.71 136.249 3.41 136.609 3.2C136.999 2.96 137.599 2.84 138.409 2.84C139.249 2.84 139.849 2.96 140.209 3.2C140.599 3.44 140.839 3.77 140.929 4.19C141.049 4.58 141.109 5.015 141.109 5.495V24.395C141.109 25.025 141.154 25.535 141.244 25.925C141.364 26.315 141.529 26.615 141.739 26.825C141.979 27.005 142.279 27.14 142.639 27.23C143.029 27.29 143.494 27.32 144.034 27.32C144.604 27.32 145.084 27.365 145.474 27.455C145.894 27.545 146.209 27.77 146.419 28.13C146.629 28.46 146.734 29.015 146.734 29.795C146.734 30.635 146.599 31.25 146.329 31.64C146.089 32 145.759 32.225 145.339 32.315C144.949 32.405 144.514 32.45 144.034 32.45ZM133.909 10.715L138.544 10.76L144.754 10.58C145.264 10.58 145.714 10.64 146.104 10.76C146.524 10.85 146.854 11.09 147.094 11.48C147.334 11.84 147.454 12.44 147.454 13.28C147.454 14.06 147.334 14.645 147.094 15.035C146.854 15.425 146.539 15.68 146.149 15.8C145.759 15.89 145.309 15.935 144.799 15.935L138.769 15.845L133.774 15.89C133.024 15.86 132.499 15.65 132.199 15.26C131.929 14.84 131.794 14.165 131.794 13.235C131.794 12.365 131.959 11.735 132.289 11.345C132.649 10.925 133.189 10.715 133.909 10.715ZM153.689 32.45C152.879 32.45 152.279 32.315 151.889 32.045C151.499 31.805 151.259 31.49 151.169 31.1C151.079 30.68 151.034 30.215 151.034 29.705V12.965C151.034 12.485 151.079 12.05 151.169 11.66C151.289 11.24 151.529 10.91 151.889 10.67C152.279 10.43 152.894 10.31 153.734 10.31C154.574 10.31 155.174 10.43 155.534 10.67C155.924 10.91 156.164 11.24 156.254 11.66C156.344 12.08 156.389 12.545 156.389 13.055V29.75C156.389 30.26 156.344 30.725 156.254 31.145C156.164 31.535 155.924 31.85 155.534 32.09C155.174 32.33 154.559 32.45 153.689 32.45ZM153.689 5.945C152.819 5.945 152.174 5.825 151.754 5.585C151.364 5.315 151.109 4.955 150.989 4.505C150.899 4.055 150.854 3.56 150.854 3.02C150.854 2.45 150.899 1.955 150.989 1.535C151.109 1.115 151.379 0.784998 151.799 0.544997C152.219 0.274999 152.864 0.14 153.734 0.14C154.634 0.14 155.279 0.274999 155.669 0.544997C156.059 0.814997 156.314 1.175 156.434 1.625C156.554 2.045 156.614 2.54 156.614 3.11C156.614 3.62 156.554 4.1 156.434 4.55C156.314 5 156.059 5.345 155.669 5.585C155.279 5.825 154.619 5.945 153.689 5.945ZM165.96 32.45C165.15 32.45 164.55 32.33 164.16 32.09C163.8 31.85 163.575 31.52 163.485 31.1C163.395 30.65 163.35 30.185 163.35 29.705V7.835C163.35 6.725 163.5 5.705 163.8 4.775C164.1 3.815 164.58 2.99 165.24 2.3C165.9 1.61 166.755 1.07 167.805 0.679998C168.855 0.259998 170.13 0.0499983 171.63 0.0499983C172.14 0.0499983 172.59 0.109998 172.98 0.229999C173.4 0.319999 173.73 0.544999 173.97 0.904998C174.24 1.265 174.375 1.88 174.375 2.75C174.375 3.56 174.24 4.16 173.97 4.55C173.73 4.94 173.4 5.18 172.98 5.27C172.56 5.36 172.095 5.405 171.585 5.405C171.075 5.405 170.625 5.435 170.235 5.495C169.875 5.525 169.575 5.615 169.335 5.765C169.125 5.915 168.96 6.155 168.84 6.485C168.75 6.815 168.705 7.235 168.705 7.745V29.795C168.705 30.275 168.645 30.725 168.525 31.145C168.435 31.535 168.195 31.85 167.805 32.09C167.415 32.33 166.8 32.45 165.96 32.45ZM161.505 10.715L166.14 10.76L172.35 10.58C172.86 10.58 173.31 10.64 173.7 10.76C174.12 10.85 174.45 11.09 174.69 11.48C174.93 11.84 175.05 12.44 175.05 13.28C175.05 14.06 174.93 14.645 174.69 15.035C174.45 15.425 174.135 15.68 173.745 15.8C173.355 15.89 172.905 15.935 172.395 15.935L166.365 15.845L161.37 15.89C160.62 15.86 160.095 15.65 159.795 15.26C159.525 14.84 159.39 14.165 159.39 13.235C159.39 12.365 159.555 11.735 159.885 11.345C160.245 10.925 160.785 10.715 161.505 10.715ZM183.02 41.315C182.06 40.895 181.505 40.415 181.355 39.875C181.205 39.365 181.34 38.675 181.76 37.805L193.37 11.795C193.79 10.835 194.24 10.265 194.72 10.085C195.2 9.875 195.935 9.98 196.925 10.4C197.855 10.82 198.395 11.285 198.545 11.795C198.725 12.305 198.62 12.995 198.23 13.865L186.53 40.01C186.14 40.97 185.705 41.525 185.225 41.675C184.745 41.855 184.01 41.735 183.02 41.315ZM187.205 30.29L176.81 14.315C176.27 13.505 176.045 12.83 176.135 12.29C176.255 11.75 176.735 11.225 177.575 10.715C178.505 10.145 179.225 9.92 179.735 10.04C180.275 10.16 180.815 10.64 181.355 11.48L189.59 24.305L187.205 30.29Z" fill="#432d94"/>
</svg>
